<?xml version="1.0" standalone="no"?>
<!DOCTYPE svg PUBLIC "-//W3C//DTD SVG 20010904//EN"
 "http://www.w3.org/TR/2001/REC-SVG-20010904/DTD/svg10.dtd">
<svg version="1.0" xmlns="http://www.w3.org/2000/svg"
 width="300px" height="105px" viewBox="0 0 763.000000 268.000000"
 preserveAspectRatio="xMidYMid meet">

<g transform="translate(0.000000,268.000000) scale(0.100000,-0.100000)"
fill="#F51997" stroke="#F51997">
<path d="M2927 1615 c-23 -271 10 -665 55 -665 27 0 345 31 356 35 8 3 12 26
12 69 l0 65 33 3 c17 2 31 6 30 11 -2 4 -3 25 -3 47 l0 40 -57 -1 c-88 -1
-156 -13 -161 -26 -2 -7 3 -13 12 -13 9 0 16 -7 16 -15 0 -9 7 -18 15 -21 10
-4 15 -20 15 -45 l0 -39 -73 0 c-84 0 -132 18 -140 53 -3 12 -9 60 -12 107 -9
119 -8 120 136 132 63 5 116 12 118 14 8 8 14 232 7 267 -8 42 -19 45 -217 54
l-136 6 -6 -78z"/>
<path d="M5763 1683 l-53 -4 0 -42 c0 -23 3 -72 7 -109 6 -65 7 -68 32 -68 42
0 52 -38 49 -181 l-3 -124 -35 -3 c-19 -2 -38 -9 -42 -15 -4 -7 -8 -46 -8 -88
l0 -77 64 -4 c35 -2 88 -1 117 2 l54 5 9 57 c11 73 5 85 -38 94 l-36 6 0 179
0 178 48 3 47 3 -3 89 c-1 49 -5 92 -8 95 -7 7 -132 10 -201 4z"/>
<path d="M5994 1578 l1 -103 -41 -3 c-38 -3 -42 -6 -48 -34 -10 -51 -7 -288 4
-288 6 0 10 43 10 109 0 59 3 129 6 155 l7 46 45 0 45 0 -7 102 c-3 56 -10
106 -15 111 -4 4 -8 -38 -7 -95z"/>
<path d="M506 1619 c-22 -213 -13 -440 25 -603 l21 -88 47 5 c25 4 108 11 184
18 l137 12 0 73 0 74 -117 0 c-137 0 -178 11 -193 53 -15 44 -12 103 6 118 11
9 65 14 179 17 156 4 164 5 169 26 3 11 6 89 6 172 l0 151 -52 7 c-29 3 -132
9 -230 13 l-176 6 -6 -54z"/>
<path d="M1173 1663 c-10 -4 -13 -83 -13 -348 l0 -343 23 -6 c12 -3 108 -6
213 -6 166 0 193 2 198 16 10 25 7 242 -3 248 -5 4 -70 9 -145 13 -75 3 -136
10 -136 15 0 4 -9 8 -20 8 -19 0 -20 7 -20 199 0 172 -2 200 -16 205 -18 7
-63 7 -81 -1z"/>
<path d="M1780 1662 l-35 -7 -16 -170 c-33 -340 -41 -488 -27 -496 7 -5 54 -9
105 -9 l92 0 3 72 3 72 50 -2 c61 -4 80 -24 89 -94 l7 -48 49 0 c50 0 50 0 50
33 0 48 -77 637 -84 644 -9 9 -245 13 -286 5z m230 -276 c0 -8 4 -16 9 -18 6
-1 13 -38 17 -80 l7 -78 -62 0 c-34 0 -61 4 -61 10 0 6 -8 10 -19 10 -15 0
-19 11 -24 76 -4 42 -4 80 -1 85 3 5 34 9 70 9 48 0 64 -3 64 -14z"/>
<path d="M1900 1315 c0 -42 4 -65 11 -65 8 0 10 17 5 55 -7 59 -12 53 59 68
11 3 -1 5 -27 6 l-48 1 0 -65z"/>
<path d="M2670 1463 c0 -153 -3 -204 -11 -196 -6 6 -17 9 -24 7 -7 -3 -18 9
-25 28 -7 18 -39 90 -72 159 l-60 126 -65 6 c-114 9 -104 41 -101 -317 l3
-311 55 0 55 0 -2 128 c-2 173 1 172 116 -25 l63 -108 82 0 83 0 6 233 c4 127
7 287 7 355 l0 122 -55 0 -55 0 0 -207z"/>
<path d="M3309 1513 c-3 -89 -8 -165 -12 -169 -3 -4 -58 -9 -122 -13 -87 -4
-118 -10 -126 -21 -14 -21 4 -210 20 -210 4 0 3 37 -2 81 -15 130 -4 139 163
139 l87 0 7 46 c8 61 6 252 -3 284 -5 14 -10 -44 -12 -137z"/>
<path d="M4580 1659 c-84 -15 -97 -33 -105 -147 -8 -105 5 -293 31 -435 13
-69 21 -91 38 -102 73 -48 268 -40 317 13 51 56 89 261 89 478 0 150 -5 180
-34 189 -37 11 -279 14 -336 4z m190 -291 c22 -30 23 -35 13 -121 -7 -55 -16
-93 -24 -98 -24 -15 -122 -9 -154 10 -36 21 -43 43 -44 144 -1 92 3 95 115 96
68 1 71 0 94 -31z"/>
<path d="M4596 1373 c-17 -4 -18 -13 -14 -89 2 -47 9 -89 14 -94 5 -5 8 23 5
75 -3 95 -11 87 94 104 l50 9 -65 0 c-36 0 -73 -2 -84 -5z"/>
<path d="M5095 1564 c-11 -162 0 -412 24 -523 11 -52 24 -98 28 -102 9 -9 354
19 364 30 3 3 4 36 1 74 l-4 67 -118 0 c-135 0 -172 12 -189 62 -16 44 -14 84
5 102 19 19 4 17 194 25 l155 6 7 40 c5 22 5 99 2 171 l-6 132 -41 6 c-23 3
-126 9 -228 12 l-187 7 -7 -109z"/>
<path d="M6203 1663 c-37 -5 -37 -3 -53 -183 -29 -316 -38 -485 -27 -492 7 -4
54 -8 105 -8 l92 0 1 60 c1 33 2 66 3 73 1 8 16 11 51 9 61 -4 82 -26 91 -94
l7 -48 48 0 c26 0 50 3 52 8 6 10 -77 660 -86 668 -8 8 -237 14 -284 7z m227
-277 c0 -8 5 -16 12 -18 8 -3 14 -33 16 -81 l4 -77 -61 0 c-34 0 -61 4 -61 10
0 6 -9 10 -20 10 -18 0 -20 7 -20 85 l0 85 65 0 c49 0 65 -3 65 -14z"/>
<path d="M6320 1315 c0 -80 18 -86 22 -7 3 57 3 57 38 63 33 6 32 6 -12 8
l-48 1 0 -65z"/>
<path d="M6752 1653 c-4 -10 -7 -166 -7 -346 0 -280 2 -329 15 -337 8 -5 106
-10 217 -10 l202 0 7 56 c6 54 1 200 -7 209 -3 2 -67 7 -142 11 -76 4 -140 11
-143 16 -3 4 -14 8 -25 8 -19 0 -20 5 -13 196 8 218 9 214 -59 214 -27 0 -40
-5 -45 -17z"/>
<path d="M1290 1470 c0 -120 4 -190 10 -190 6 0 10 70 10 190 0 120 -4 190
-10 190 -6 0 -10 -70 -10 -190z"/>
<path d="M2098 1655 c-2 -3 -1 -33 4 -68 5 -34 22 -170 38 -302 16 -132 32
-259 35 -282 l6 -42 -63 -4 -63 -3 70 -2 71 -2 -4 38 c-9 90 -83 666 -86 669
-1 2 -5 1 -8 -2z"/>
<path d="M2799 1458 c-1 -112 -4 -275 -8 -363 l-6 -160 -85 2 c-59 1 -76 -1
-55 -6 17 -5 60 -9 96 -10 l66 -1 6 203 c10 301 9 537 -3 537 -6 0 -11 -75
-11 -202z"/>
<path d="M3990 1648 c-70 -5 -120 -14 -128 -22 -16 -16 -31 -163 -32 -308 l0
-106 30 -7 c17 -4 70 -10 118 -13 61 -5 87 -11 87 -20 0 -7 6 -16 13 -21 8 -5
10 -18 6 -39 -8 -37 -9 -38 -136 -18 -49 7 -90 10 -93 8 -3 -3 -5 -29 -5 -57
l0 -52 238 -5 c130 -3 238 -5 239 -4 1 1 5 49 9 108 l7 106 -29 5 c-16 3 -100
9 -187 12 -86 4 -160 11 -163 16 -3 5 -14 9 -25 9 -20 0 -23 10 -13 59 l7 31
167 0 c151 0 168 2 172 18 3 9 3 83 0 165 l-5 147 -81 -1 c-44 -1 -133 -6
-196 -11z"/>
<path d="M4294 1528 c4 -75 4 -155 0 -177 l-7 -41 -167 0 -168 0 -4 -25 c-4
-17 -1 -25 8 -25 8 0 14 7 14 15 0 12 28 15 173 17 l172 3 -3 175 c-2 103 -8
179 -14 185 -7 7 -9 -32 -4 -127z"/>
<path d="M6520 1639 c0 -13 15 -145 34 -294 19 -148 37 -296 41 -327 l6 -57
-63 -4 -63 -3 72 -2 72 -2 -6 53 c-18 172 -82 649 -87 654 -3 4 -6 -5 -6 -18z"/>
<path d="M6878 1473 c-2 -104 -2 -190 0 -193 2 -2 7 2 12 10 12 19 13 357 1
364 -5 4 -11 -73 -13 -181z"/>
<path d="M989 1483 c-1 -92 -2 -175 -3 -183 -1 -12 -30 -16 -171 -20 -93 -3
-176 -9 -182 -13 -14 -9 -16 -38 -7 -86 9 -43 20 -39 16 7 -1 20 2 44 7 52 11
17 111 28 252 29 92 1 97 2 103 24 10 38 7 345 -4 352 -6 4 -10 -53 -11 -162z"/>
<path d="M5587 1523 c2 -71 1 -153 -4 -183 l-8 -55 -173 -5 c-194 -7 -197 -8
-187 -75 8 -57 22 -64 21 -11 -1 24 3 48 7 52 11 12 133 23 253 23 l102 1 7
65 c8 75 -4 315 -16 315 -4 0 -5 -57 -2 -127z"/>
<path d="M4968 1481 c4 -241 -34 -448 -95 -513 -25 -26 -61 -36 -193 -52 -19
-2 8 -3 61 -2 151 5 174 24 215 181 25 92 27 117 28 312 1 129 -3 216 -9 222
-7 7 -9 -43 -7 -148z"/>
<path d="M2590 1409 c0 -4 7 -22 15 -40 8 -19 14 -27 14 -19 0 14 -28 72 -29
59z"/>
<path d="M1620 1103 c0 -181 25 -163 -229 -165 l-216 -1 220 -8 c200 -8 221
-7 233 8 15 21 17 283 2 283 -6 0 -10 -46 -10 -117z"/>
<path d="M3436 1160 l7 -60 -37 0 -36 0 0 -65 c0 -44 -4 -67 -12 -70 -7 -2
-92 -12 -188 -20 -164 -16 -190 -20 -179 -29 2 -2 87 5 189 15 102 10 191 18
198 19 8 0 12 21 12 70 l0 70 36 0 37 0 -7 38 c-3 20 -6 49 -6 65 0 15 -5 27
-10 27 -7 0 -9 -20 -4 -60z"/>
<path d="M7205 1097 c0 -67 -3 -130 -7 -139 -7 -16 -28 -18 -225 -20 l-218 -1
225 -8 c138 -5 228 -5 234 1 12 12 21 206 12 254 -13 69 -21 35 -21 -87z"/>
<path d="M4357 1096 c-4 -57 -10 -111 -13 -120 -6 -15 -30 -16 -248 -12 -163
3 -210 2 -146 -4 52 -4 167 -8 256 -9 l161 -1 6 68 c9 95 9 182 -1 182 -5 0
-12 -47 -15 -104z"/>
<path d="M3875 1175 c19 -9 165 -21 165 -13 0 4 -17 8 -39 8 -21 0 -60 2 -87
5 -27 3 -44 3 -39 0z"/>
<path d="M2448 1055 l-3 -110 -60 -6 -60 -6 73 -1 72 -2 0 103 c0 144 -18 163
-22 22z"/>
<path d="M940 1026 l0 -83 -137 -12 c-203 -18 -243 -23 -238 -30 2 -4 86 1
187 10 101 10 189 18 196 19 15 0 18 180 2 180 -6 0 -10 -35 -10 -84z"/>
<path d="M5535 1028 l0 -83 -110 -11 c-60 -6 -145 -15 -187 -19 -43 -4 -78
-10 -78 -14 0 -6 191 7 343 24 l57 7 0 58 c0 63 -9 120 -19 120 -3 0 -6 -37
-6 -82z"/>
<path d="M5976 1038 c-4 -40 -11 -77 -17 -83 -6 -6 -62 -10 -132 -9 -95 0
-112 -2 -77 -8 47 -9 225 -6 235 3 11 11 18 169 8 169 -6 0 -13 -33 -17 -72z"/>
<path d="M1920 1027 l0 -72 -112 3 c-62 2 -111 2 -108 -1 3 -2 58 -7 123 -11
l117 -7 0 75 c0 74 0 75 28 79 22 3 20 4 -10 6 l-38 1 0 -73z"/>
<path d="M6346 1078 c-3 -13 -6 -46 -6 -73 l0 -50 -112 3 c-62 2 -111 2 -108
-1 3 -2 58 -7 123 -11 l117 -7 0 44 c0 79 9 105 39 110 20 3 18 4 -10 6 -30 1
-38 -3 -43 -21z"/>
</g>
</svg>
